# xmcd
#
# Track frame offsets: 
#        150
#        15507
#        31089
#        59725
#        76632
#        89968
#        110931
#        125332
#        143167
#        160195
#        178461
#        194126
#        207824
#        222673
#        240809
#        259426
#        281120
#        295798
#        317089
#        343467
#
# Disc length: 4777 seconds
#
# Revision: 2
# Processed by: cddbd v1.5.2PL0 Copyright (c) Steve Scherf et al.
# Submitted via: ExactAudioCopy v1.3
#
DISCID=4412a714
DTITLE=Various Artist - Akella Presents - vol.84 - Country-Blues  CD1
DYEAR=2016
DGENRE=Blues
TTITLE0=Mike Zito and The Wheel - Early In The Morning
TTITLE1=Trampled Under Foot - Bad Woman
TTITLE2=Lucinda Williams - One More Day
TTITLE3=Don Henley - No, Thank You
TTITLE4=Danny Brooks - Bama Bound
TTITLE5=John Illsley - Lay Me Down
TTITLE6=Lazy Lester - Raining In My Heart
TTITLE7=Mike Farris - The Night The Cumberland Came Alive
TTITLE8=Malcolm Holcombe - Leavin' Anna
TTITLE9=Tim Wagoner - Real Good Time
TTITLE10=Bill Wharton - It's Always Twilight Time
TTITLE11=Ray Bonneville - Night Walker
TTITLE12=John Fogerty and Alan Jackson - Have You Ever Seen The Rain
TTITLE13=Blue Henry - Can't Get to Heaven
TTITLE14=Bob Neuwirth - Dazzied By Diamonds
TTITLE15=John Mayer - Born and Raised
TTITLE16=Wentus Blues Band - The Man And The Dokey
TTITLE17=Bargel and Heuser - The Devil Can't Stop Me
TTITLE18=Christine Lakeland - Good Faith
TTITLE19=Paul Reddick - Gotta Find A&
EXTD=
EXTT0=
EXTT1=
EXTT2=
EXTT3=
EXTT4=
EXTT5=
EXTT6=
EXTT7=
EXTT8=
EXTT9=
EXTT10=
EXTT11=
EXTT12=
EXTT13=
EXTT14=
EXTT15=
EXTT16=
EXTT17=
EXTT18=
EXTT19=
PLAYORDER=
